<svg width="32" height="32" viewBox="0 0 32 32" fill="none" xmlns="http://www.w3.org/2000/svg">
<path d="M25.8137 9.6379C26.6421 8.8095 26.6421 7.46638 25.8137 6.63797L25.3622 6.18649C24.5338 5.35808 23.1907 5.35808 22.3623 6.18649L16.0002 12.5486L9.63815 6.18649C8.80974 5.35809 7.46662 5.35808 6.63822 6.18649L6.18673 6.63797C5.35833 7.46638 5.35833 8.80949 6.18674 9.6379L12.5488 16L6.18674 22.362C5.35833 23.1904 5.35833 24.5336 6.18674 25.362L6.63822 25.8134C7.46662 26.6419 8.80974 26.6419 9.63814 25.8134L16.0002 19.4514L22.3623 25.8134C23.1907 26.6418 24.5338 26.6419 25.3622 25.8134L25.8137 25.362C26.6421 24.5336 26.6421 23.1904 25.8137 22.362L19.4516 16L25.8137 9.6379Z" fill="white"/>
</svg>
