<svg width="32" height="32" viewBox="0 0 32 32" fill="none" xmlns="http://www.w3.org/2000/svg">
<ellipse cx="15.8215" cy="28.8696" rx="2.43478" ry="2.43478" fill="white"/>
<path d="M20.6304 2.43161C18.8412 1.54923 16.8304 1.21726 14.8525 1.47766C12.8745 1.73806 11.0182 2.57914 9.51829 3.89455C8.54448 4.74856 7.74928 5.7776 7.16993 6.92178C6.64927 7.95007 7.32836 9.10945 8.44168 9.40777L9.11362 9.58782C10.2269 9.88613 11.3448 9.18129 12.0532 8.27202C12.2544 8.01367 12.4805 7.77365 12.729 7.55568C13.5048 6.8753 14.465 6.44026 15.4881 6.30557C16.5111 6.17088 17.5512 6.34259 18.4767 6.79899C19.4022 7.25538 20.1715 7.97597 20.6875 8.86963C21.2034 9.76328 21.4428 10.7899 21.3753 11.8196C21.3078 12.8492 20.9365 13.8358 20.3083 14.6545C19.6801 15.4731 18.8233 16.0871 17.8462 16.4188C17.0433 16.6957 16.8273 16.6957 15.9998 16.6957L15.3042 16.6957C14.1516 16.6957 13.2172 17.6301 13.2172 18.7827V22.2609C13.2172 23.4135 14.1516 24.3479 15.3042 24.3479H15.9999C17.1524 24.3479 18.0868 23.4135 18.0868 22.2609C18.0868 21.7503 18.4568 21.3184 18.9473 21.1763C19.0974 21.1329 19.2518 21.0841 19.4114 21.03C21.3006 20.3887 22.9571 19.2016 24.1716 17.6189C25.3861 16.0361 26.104 14.1288 26.2344 12.138C26.3649 10.1473 25.9021 8.16257 24.9046 6.43484C23.9071 4.70711 22.4197 3.31398 20.6304 2.43161Z" fill="white"/>
</svg>
